<mxfile host="65bd71144e">
    <diagram id="F_Kk43tlsiTLpb3N8Rv8" name="Page-1">
        <mxGraphModel dx="912" dy="800" grid="1" gridSize="10" guides="1" tooltips="1" connect="1" arrows="1" fold="1" page="1" pageScale="1" pageWidth="300" pageHeight="200" background="#F4F1DE" math="0" shadow="0">
            <root>
                <mxCell id="0"/>
                <mxCell id="1" parent="0"/>
                <mxCell id="183" value="" style="whiteSpace=wrap;html=1;aspect=fixed;rounded=1;fillColor=#F2CC8F;strokeColor=#E07A5F;fontColor=#393C56;sketch=1;" parent="1" vertex="1">
                    <mxGeometry x="515.0600000000001" y="580.06" width="199.88" height="199.88" as="geometry"/>
                </mxCell>
                <mxCell id="180" value="" style="whiteSpace=wrap;html=1;aspect=fixed;rounded=1;fillColor=#F2CC8F;strokeColor=#E07A5F;fontColor=#393C56;sketch=1;" parent="1" vertex="1">
                    <mxGeometry x="260" y="580" width="200" height="200" as="geometry"/>
                </mxCell>
                <mxCell id="170" value="" style="rounded=1;whiteSpace=wrap;html=1;sketch=1;fillColor=#F2CC8F;strokeColor=#E07A5F;fontColor=#393C56;" parent="1" vertex="1">
                    <mxGeometry x="10" y="830" width="930" height="285" as="geometry"/>
                </mxCell>
                <mxCell id="2" value="&lt;font style=&quot;font-size: 19px&quot;&gt;&lt;b&gt;&lt;font style=&quot;font-size: 19px&quot;&gt;V8&lt;/font&gt;&lt;br&gt;(JS ENGINE)&lt;/b&gt;&lt;/font&gt;" style="whiteSpace=wrap;html=1;aspect=fixed;rounded=1;fillColor=#F2CC8F;strokeColor=#E07A5F;fontColor=#393C56;sketch=1;" parent="1" vertex="1">
                    <mxGeometry x="10" y="420" width="150" height="150" as="geometry"/>
                </mxCell>
                <mxCell id="3" value="&lt;font style=&quot;font-size: 18px&quot;&gt;&lt;b&gt;APPLICATION&lt;/b&gt;&lt;/font&gt;" style="rounded=1;whiteSpace=wrap;html=1;sketch=1;fillColor=#F2CC8F;strokeColor=#E07A5F;fontColor=#393C56;" parent="1" vertex="1">
                    <mxGeometry x="10" y="80" width="150" height="80" as="geometry"/>
                </mxCell>
                <mxCell id="4" value="&lt;font style=&quot;font-size: 16px&quot;&gt;JAVASCRIPT&lt;/font&gt;" style="text;html=1;align=center;verticalAlign=middle;resizable=0;points=[];autosize=1;strokeColor=none;strokeWidth=4;sketch=1;fontColor=#393C56;" parent="1" vertex="1">
                    <mxGeometry x="27" y="200" width="110" height="20" as="geometry"/>
                </mxCell>
                <mxCell id="9" value="" style="rounded=1;whiteSpace=wrap;html=1;sketch=1;fillColor=#F2CC8F;strokeColor=#E07A5F;fontColor=#393C56;" parent="1" vertex="1">
                    <mxGeometry x="202.5" y="80" width="120" height="490" as="geometry"/>
                </mxCell>
                <mxCell id="10" value="&lt;font style=&quot;font-size: 13px&quot;&gt;&lt;span&gt;NODE.JS&lt;/span&gt;&lt;br&gt;&lt;span&gt;BINDINGS&lt;/span&gt;&lt;br&gt;&lt;span&gt;(NODE API)&lt;/span&gt;&lt;/font&gt;" style="text;html=1;strokeColor=none;fillColor=none;align=center;verticalAlign=middle;whiteSpace=wrap;rounded=0;sketch=1;fontColor=#393C56;" parent="1" vertex="1">
                    <mxGeometry x="217.5" y="120" width="90" height="23.33" as="geometry"/>
                </mxCell>
                <mxCell id="11" value="&lt;font style=&quot;font-size: 13px&quot;&gt;OS OPERATION&lt;/font&gt;" style="rounded=1;whiteSpace=wrap;html=1;strokeWidth=1;shadow=0;perimeterSpacing=0;dashed=1;sketch=1;fillColor=#F2CC8F;strokeColor=#E07A5F;fontColor=#393C56;" parent="1" vertex="1">
                    <mxGeometry x="210" y="465" width="105" height="60" as="geometry"/>
                </mxCell>
                <mxCell id="13" value="" style="endArrow=classic;html=1;strokeWidth=4;sketch=1;curved=1;fontColor=#393C56;labelBackgroundColor=#F4F1DE;strokeColor=#006666;" parent="1" source="2" edge="1">
                    <mxGeometry width="50" height="50" relative="1" as="geometry">
                        <mxPoint x="159" y="440" as="sourcePoint"/>
                        <mxPoint x="230" y="370" as="targetPoint"/>
                        <Array as="points">
                            <mxPoint x="170" y="440"/>
                            <mxPoint x="170" y="370"/>
                            <mxPoint x="200" y="340"/>
                        </Array>
                    </mxGeometry>
                </mxCell>
                <mxCell id="17" value="" style="endArrow=classic;html=1;strokeWidth=4;sketch=1;curved=1;fontColor=#393C56;labelBackgroundColor=#F4F1DE;strokeColor=#006666;" parent="1" edge="1">
                    <mxGeometry width="50" height="50" relative="1" as="geometry">
                        <mxPoint x="21" y="422" as="sourcePoint"/>
                        <mxPoint x="19" y="170" as="targetPoint"/>
                        <Array as="points">
                            <mxPoint x="21" y="360"/>
                            <mxPoint x="21" y="290"/>
                        </Array>
                    </mxGeometry>
                </mxCell>
                <mxCell id="21" value="" style="endArrow=classic;html=1;strokeWidth=4;exitX=0.92;exitY=1;exitDx=0;exitDy=0;exitPerimeter=0;entryX=0.92;entryY=0;entryDx=0;entryDy=0;entryPerimeter=0;sketch=1;curved=1;fontColor=#393C56;labelBackgroundColor=#F4F1DE;strokeColor=#006666;" parent="1" source="3" target="2" edge="1">
                    <mxGeometry width="50" height="50" relative="1" as="geometry">
                        <mxPoint x="270" y="310" as="sourcePoint"/>
                        <mxPoint x="320" y="260" as="targetPoint"/>
                        <Array as="points"/>
                    </mxGeometry>
                </mxCell>
                <mxCell id="22" value="" style="whiteSpace=wrap;html=1;aspect=fixed;rounded=1;shadow=0;strokeWidth=1;fillColor=#F2CC8F;sketch=1;strokeColor=#E07A5F;fontColor=#393C56;" parent="1" vertex="1">
                    <mxGeometry x="360" y="80" width="480" height="480" as="geometry"/>
                </mxCell>
                <mxCell id="23" value="&lt;font style=&quot;font-size: 13px&quot;&gt;&lt;b&gt;EVENT&lt;br&gt;QUEUE&lt;/b&gt;&lt;/font&gt;" style="text;html=1;strokeColor=none;fillColor=none;align=center;verticalAlign=middle;whiteSpace=wrap;rounded=0;shadow=0;strokeWidth=3;sketch=1;fontColor=#393C56;" parent="1" vertex="1">
                    <mxGeometry x="405" y="150" width="40" height="20" as="geometry"/>
                </mxCell>
                <mxCell id="24" value="" style="rounded=1;whiteSpace=wrap;html=1;shadow=0;strokeWidth=2;fillColor=#F2CC8F;sketch=1;strokeColor=#E07A5F;fontColor=#393C56;dashed=1;" parent="1" vertex="1">
                    <mxGeometry x="380" y="260" width="90" height="60" as="geometry"/>
                </mxCell>
                <mxCell id="25" value="" style="rounded=1;whiteSpace=wrap;html=1;shadow=0;strokeWidth=2;fillColor=#F2CC8F;sketch=1;strokeColor=#E07A5F;fontColor=#393C56;dashed=1;" parent="1" vertex="1">
                    <mxGeometry x="380" y="330" width="90" height="60" as="geometry"/>
                </mxCell>
                <mxCell id="26" value="" style="rounded=1;whiteSpace=wrap;html=1;shadow=0;strokeWidth=2;fillColor=#F2CC8F;sketch=1;strokeColor=#E07A5F;fontColor=#393C56;dashed=1;" parent="1" vertex="1">
                    <mxGeometry x="380" y="400" width="90" height="60" as="geometry"/>
                </mxCell>
                <mxCell id="27" value="" style="rounded=1;whiteSpace=wrap;html=1;shadow=0;strokeWidth=2;fillColor=#F2CC8F;sketch=1;strokeColor=#E07A5F;fontColor=#393C56;dashed=1;" parent="1" vertex="1">
                    <mxGeometry x="380" y="470" width="90" height="60" as="geometry"/>
                </mxCell>
                <mxCell id="28" value="" style="rounded=1;whiteSpace=wrap;html=1;shadow=0;strokeWidth=2;fillColor=#F2CC8F;sketch=1;strokeColor=#E07A5F;fontColor=#393C56;dashed=1;" parent="1" vertex="1">
                    <mxGeometry x="380" y="190" width="90" height="60" as="geometry"/>
                </mxCell>
                <mxCell id="29" value="&lt;b&gt;&lt;span style=&quot;font-size: 13px&quot;&gt;WORKER&lt;br&gt;&lt;/span&gt;THREADS&lt;/b&gt;" style="text;html=1;strokeColor=none;fillColor=none;align=center;verticalAlign=middle;whiteSpace=wrap;rounded=0;shadow=0;strokeWidth=3;sketch=1;fontColor=#393C56;" parent="1" vertex="1">
                    <mxGeometry x="755" y="150" width="40" height="20" as="geometry"/>
                </mxCell>
                <mxCell id="30" value="NETWORK" style="rounded=1;whiteSpace=wrap;html=1;shadow=0;strokeWidth=2;fillColor=#F2CC8F;sketch=1;strokeColor=#E07A5F;fontColor=#393C56;dashed=1;" parent="1" vertex="1">
                    <mxGeometry x="730" y="260" width="90" height="60" as="geometry"/>
                </mxCell>
                <mxCell id="31" value="PROCESS" style="rounded=1;whiteSpace=wrap;html=1;shadow=0;strokeWidth=2;fillColor=#F2CC8F;sketch=1;strokeColor=#E07A5F;fontColor=#393C56;dashed=1;" parent="1" vertex="1">
                    <mxGeometry x="730" y="330" width="90" height="60" as="geometry"/>
                </mxCell>
                <mxCell id="32" value="" style="rounded=1;whiteSpace=wrap;html=1;shadow=0;strokeWidth=2;fillColor=#F2CC8F;sketch=1;strokeColor=#E07A5F;fontColor=#393C56;dashed=1;" parent="1" vertex="1">
                    <mxGeometry x="730" y="400" width="90" height="60" as="geometry"/>
                </mxCell>
                <mxCell id="33" value="" style="rounded=1;whiteSpace=wrap;html=1;shadow=0;strokeWidth=2;fillColor=#F2CC8F;sketch=1;strokeColor=#E07A5F;fontColor=#393C56;dashed=1;" parent="1" vertex="1">
                    <mxGeometry x="730" y="470" width="90" height="60" as="geometry"/>
                </mxCell>
                <mxCell id="34" value="FILE SYSTEM" style="rounded=1;whiteSpace=wrap;html=1;shadow=0;strokeWidth=2;fillColor=#F2CC8F;sketch=1;strokeColor=#E07A5F;fontColor=#393C56;dashed=1;" parent="1" vertex="1">
                    <mxGeometry x="730" y="190" width="90" height="60" as="geometry"/>
                </mxCell>
                <mxCell id="55" value="" style="verticalLabelPosition=bottom;html=1;verticalAlign=top;strokeWidth=8;shape=mxgraph.lean_mapping.physical_pull;pointerEvents=1;rounded=1;shadow=0;fillColor=#F2CC8F;rotation=5;sketch=1;fontColor=#393C56;strokeColor=#E07A5F;" parent="1" vertex="1">
                    <mxGeometry x="540" y="280" width="120" height="120" as="geometry"/>
                </mxCell>
                <mxCell id="57" value="&lt;b style=&quot;font-size: 16px&quot;&gt;EVENT&lt;br&gt;LOOP&lt;/b&gt;" style="text;html=1;strokeColor=none;fillColor=none;align=center;verticalAlign=middle;whiteSpace=wrap;rounded=0;shadow=0;sketch=1;fontColor=#393C56;" parent="1" vertex="1">
                    <mxGeometry x="555" y="320" width="90" height="45" as="geometry"/>
                </mxCell>
                <mxCell id="58" value="&lt;b&gt;&lt;font style=&quot;font-size: 15px&quot;&gt;LIBUV&lt;br&gt;ASYNC I/O&lt;/font&gt;&lt;/b&gt;" style="text;html=1;strokeColor=none;fillColor=none;align=center;verticalAlign=middle;whiteSpace=wrap;rounded=0;shadow=0;sketch=1;fontColor=#393C56;" parent="1" vertex="1">
                    <mxGeometry x="555" y="100" width="90" height="20" as="geometry"/>
                </mxCell>
                <mxCell id="90" value="&lt;b&gt;&lt;font style=&quot;font-size: 15px&quot;&gt;EVENT LOOP E SINCRONIA DE FUNÇÕES JAVASCRIPT&lt;/font&gt;&lt;/b&gt;" style="text;html=1;strokeColor=none;fillColor=none;align=center;verticalAlign=middle;whiteSpace=wrap;rounded=0;sketch=0;fontColor=#393C56;" parent="1" vertex="1">
                    <mxGeometry x="202.5" y="10" width="477.5" height="9" as="geometry"/>
                </mxCell>
                <mxCell id="91" value="" style="endArrow=classic;html=1;fontColor=#393C56;fillColor=#F2CC8F;strokeWidth=4;strokeColor=#006666;" parent="1" edge="1">
                    <mxGeometry width="50" height="50" relative="1" as="geometry">
                        <mxPoint x="570" y="270" as="sourcePoint"/>
                        <mxPoint x="700" y="210" as="targetPoint"/>
                        <Array as="points">
                            <mxPoint x="630" y="230"/>
                            <mxPoint x="670" y="210"/>
                        </Array>
                    </mxGeometry>
                </mxCell>
                <mxCell id="92" value="&lt;font style=&quot;font-size: 15px&quot; color=&quot;#006666&quot;&gt;Blocking Operation&lt;/font&gt;" style="text;html=1;strokeColor=none;fillColor=none;align=center;verticalAlign=middle;whiteSpace=wrap;rounded=0;sketch=0;fontColor=#393C56;rotation=-30;" parent="1" vertex="1">
                    <mxGeometry x="550" y="210" width="130" height="20" as="geometry"/>
                </mxCell>
                <mxCell id="93" value="&lt;b&gt;CAMADA&lt;/b&gt;" style="text;html=1;strokeColor=none;fillColor=none;align=center;verticalAlign=middle;whiteSpace=wrap;rounded=0;sketch=0;fontColor=#393C56;" parent="1" vertex="1">
                    <mxGeometry x="62" y="50" width="40" height="20" as="geometry"/>
                </mxCell>
                <mxCell id="106" value="" style="edgeStyle=orthogonalEdgeStyle;curved=0;rounded=1;sketch=0;orthogonalLoop=1;jettySize=auto;html=1;fontColor=#393C56;strokeWidth=4;fillColor=#F2CC8F;strokeColor=#006666;" parent="1" source="94" target="2" edge="1">
                    <mxGeometry relative="1" as="geometry"/>
                </mxCell>
                <mxCell id="94" value="&lt;b&gt;Executa JS&lt;/b&gt;" style="text;html=1;strokeColor=none;fillColor=none;align=center;verticalAlign=middle;whiteSpace=wrap;rounded=0;sketch=0;fontColor=#393C56;" parent="1" vertex="1">
                    <mxGeometry x="51.25" y="370" width="67.5" height="20" as="geometry"/>
                </mxCell>
                <mxCell id="107" value="" style="edgeStyle=orthogonalEdgeStyle;curved=0;rounded=1;sketch=0;orthogonalLoop=1;jettySize=auto;html=1;fontColor=#393C56;strokeWidth=4;fillColor=#F2CC8F;strokeColor=#006666;" parent="1" source="95" edge="1">
                    <mxGeometry relative="1" as="geometry">
                        <mxPoint x="263" y="100" as="targetPoint"/>
                    </mxGeometry>
                </mxCell>
                <mxCell id="95" value="&lt;b&gt;Camada Que faz a transformação e melhoria dos bindings&lt;br&gt;&amp;nbsp;para C++&lt;/b&gt;" style="text;html=1;strokeColor=none;fillColor=none;align=center;verticalAlign=middle;whiteSpace=wrap;rounded=0;sketch=0;fontColor=#393C56;" parent="1" vertex="1">
                    <mxGeometry x="137" y="30" width="250" height="40" as="geometry"/>
                </mxCell>
                <mxCell id="96" value="&lt;h1&gt;&lt;br&gt;&lt;/h1&gt;" style="text;html=1;strokeColor=none;fillColor=none;spacing=5;spacingTop=-20;whiteSpace=wrap;overflow=hidden;rounded=0;sketch=0;fontColor=#393C56;" parent="1" vertex="1">
                    <mxGeometry x="380" y="180" width="190" height="120" as="geometry"/>
                </mxCell>
                <mxCell id="114" value="" style="endArrow=classic;html=1;fontColor=#393C56;strokeWidth=4;fillColor=#F2CC8F;entryX=0.415;entryY=0;entryDx=0;entryDy=0;entryPerimeter=0;exitX=1;exitY=0.5;exitDx=0;exitDy=0;strokeColor=#006666;" parent="1" source="9" target="22" edge="1">
                    <mxGeometry width="50" height="50" relative="1" as="geometry">
                        <mxPoint x="450" y="300" as="sourcePoint"/>
                        <mxPoint x="560" y="70" as="targetPoint"/>
                        <Array as="points">
                            <mxPoint x="340" y="280"/>
                            <mxPoint x="340" y="230"/>
                            <mxPoint x="340" y="140"/>
                            <mxPoint x="340" y="100"/>
                            <mxPoint x="340" y="60"/>
                            <mxPoint x="390" y="60"/>
                            <mxPoint x="559" y="60"/>
                        </Array>
                    </mxGeometry>
                </mxCell>
                <mxCell id="115" value="&lt;b&gt;Executa na máquina a partir da LIBUV&lt;/b&gt;" style="text;html=1;strokeColor=none;fillColor=none;align=center;verticalAlign=middle;whiteSpace=wrap;rounded=0;sketch=0;fontColor=#393C56;" parent="1" vertex="1">
                    <mxGeometry x="570" y="50" width="170" height="20" as="geometry"/>
                </mxCell>
                <mxCell id="119" value="" style="edgeStyle=orthogonalEdgeStyle;curved=0;rounded=1;sketch=0;orthogonalLoop=1;jettySize=auto;html=1;fontColor=#393C56;strokeColor=#E07A5F;strokeWidth=1;fillColor=#F2CC8F;" parent="1" source="116" edge="1">
                    <mxGeometry relative="1" as="geometry">
                        <mxPoint x="623.75" y="400" as="targetPoint"/>
                    </mxGeometry>
                </mxCell>
                <mxCell id="116" value="&lt;b&gt;FLUXO DE EVENTOS&lt;br&gt;Delegando os eventos no SO ou dentro do fluxo do Node.js&lt;br&gt;&lt;/b&gt;" style="text;html=1;strokeColor=none;fillColor=none;align=center;verticalAlign=middle;whiteSpace=wrap;rounded=0;sketch=0;fontColor=#393C56;" parent="1" vertex="1">
                    <mxGeometry x="533.75" y="449" width="132.5" height="42.5" as="geometry"/>
                </mxCell>
                <mxCell id="129" value="" style="edgeStyle=orthogonalEdgeStyle;curved=0;rounded=1;sketch=0;orthogonalLoop=1;jettySize=auto;html=1;fontColor=#393C56;strokeColor=#006666;strokeWidth=4;fillColor=#F2CC8F;" parent="1" source="121" target="126" edge="1">
                    <mxGeometry relative="1" as="geometry">
                        <Array as="points">
                            <mxPoint x="625" y="550"/>
                            <mxPoint x="682" y="550"/>
                        </Array>
                    </mxGeometry>
                </mxCell>
                <mxCell id="121" value="&lt;h1&gt;Operação bloqueante&lt;/h1&gt;&lt;p&gt;Acesso ao banco de dados, ler arquivo etc, ele delega para que o SO faça, quando o SO resolver tudo isso ele envia um callback, uma chamada de volta(terminei de executar) e devolve para quem chamou.&lt;/p&gt;" style="text;html=1;strokeColor=none;fillColor=none;spacing=5;spacingTop=-20;whiteSpace=wrap;overflow=hidden;rounded=0;sketch=0;fontColor=#393C56;" parent="1" vertex="1">
                    <mxGeometry x="530" y="590" width="190" height="180" as="geometry"/>
                </mxCell>
                <mxCell id="125" value="" style="curved=1;endArrow=classic;html=1;fontColor=#393C56;strokeWidth=4;fillColor=#647687;strokeColor=#006666;" parent="1" edge="1">
                    <mxGeometry width="50" height="50" relative="1" as="geometry">
                        <mxPoint x="720" y="490" as="sourcePoint"/>
                        <mxPoint x="640" y="395" as="targetPoint"/>
                        <Array as="points">
                            <mxPoint x="710" y="500"/>
                            <mxPoint x="660" y="425"/>
                        </Array>
                    </mxGeometry>
                </mxCell>
                <mxCell id="126" value="&lt;font color=&quot;#006666&quot;&gt;Execute Callback&lt;/font&gt;" style="text;html=1;strokeColor=none;fillColor=none;align=center;verticalAlign=middle;whiteSpace=wrap;rounded=0;sketch=0;fontColor=#393C56;" parent="1" vertex="1">
                    <mxGeometry x="633" y="500" width="97" height="20" as="geometry"/>
                </mxCell>
                <mxCell id="127" value="" style="curved=1;endArrow=classic;html=1;fontColor=#393C56;strokeWidth=4;fillColor=#647687;strokeColor=#006666;" parent="1" edge="1">
                    <mxGeometry width="50" height="50" relative="1" as="geometry">
                        <mxPoint x="590" y="410" as="sourcePoint"/>
                        <mxPoint x="480" y="430" as="targetPoint"/>
                        <Array as="points">
                            <mxPoint x="580" y="430"/>
                        </Array>
                    </mxGeometry>
                </mxCell>
                <mxCell id="128" value="&lt;font color=&quot;#009999&quot;&gt;Devolve pra quem chamou&lt;/font&gt;" style="text;html=1;strokeColor=none;fillColor=none;align=center;verticalAlign=middle;whiteSpace=wrap;rounded=0;sketch=0;fontColor=#393C56;" parent="1" vertex="1">
                    <mxGeometry x="470" y="390" width="97.5" height="16.6" as="geometry"/>
                </mxCell>
                <mxCell id="131" value="&lt;h1&gt;Pilha de Eventos&lt;/h1&gt;&lt;p&gt;Grande looping rodando que vai enfileirando as minhas tarefas.&lt;/p&gt;&lt;p&gt;Single Thread para manipular o event loop (delegação de eventos), mas quem trabalha com as threads é o SO que gerencia tudo isso.&lt;/p&gt;" style="text;html=1;strokeColor=none;fillColor=none;spacing=5;spacingTop=-20;whiteSpace=wrap;overflow=hidden;rounded=0;sketch=0;fontColor=#393C56;" parent="1" vertex="1">
                    <mxGeometry x="270" y="580" width="190" height="190" as="geometry"/>
                </mxCell>
                <mxCell id="135" value="" style="endArrow=classic;html=1;fontColor=#393C56;strokeColor=#006666;strokeWidth=4;fillColor=#F2CC8F;" parent="1" edge="1">
                    <mxGeometry width="50" height="50" relative="1" as="geometry">
                        <mxPoint x="463.75" y="220" as="sourcePoint"/>
                        <mxPoint x="533.75" y="220" as="targetPoint"/>
                        <Array as="points">
                            <mxPoint x="500" y="220"/>
                        </Array>
                    </mxGeometry>
                </mxCell>
                <mxCell id="138" value="&lt;font style=&quot;font-size: 19px&quot;&gt;&lt;b&gt;&lt;font color=&quot;#1a1a1a&quot;&gt;Event Loop&lt;br&gt;&lt;/font&gt;&lt;/b&gt;&lt;br&gt;&lt;/font&gt;" style="text;html=1;strokeColor=none;fillColor=none;align=center;verticalAlign=middle;whiteSpace=wrap;rounded=0;" parent="1" vertex="1">
                    <mxGeometry x="401" y="820" width="118.5" height="20" as="geometry"/>
                </mxCell>
                <mxCell id="142" value="&lt;font size=&quot;1&quot;&gt;&lt;b style=&quot;font-size: 16px&quot;&gt;LISTAR USUÁRIOS&lt;/b&gt;&lt;/font&gt;" style="rounded=1;whiteSpace=wrap;html=1;sketch=1;fillColor=#F2CC8F;strokeColor=#E07A5F;fontColor=#393C56;" parent="1" vertex="1">
                    <mxGeometry x="23.75" y="880" width="150" height="80" as="geometry"/>
                </mxCell>
                <mxCell id="147" value="&lt;font color=&quot;#000000&quot;&gt;&lt;b&gt;CHAMADA PARA&lt;/b&gt;&lt;/font&gt;" style="text;html=1;strokeColor=none;fillColor=none;align=center;verticalAlign=middle;whiteSpace=wrap;rounded=0;" parent="1" vertex="1">
                    <mxGeometry x="22.999999999999996" y="860" width="127.31" height="20" as="geometry"/>
                </mxCell>
                <mxCell id="149" value="&lt;b&gt;&lt;font color=&quot;#1a1a1a&quot;&gt;Recebi Chamada Na API&lt;/font&gt;&lt;/b&gt;" style="text;html=1;align=center;verticalAlign=middle;whiteSpace=wrap;rounded=0;" parent="1" vertex="1">
                    <mxGeometry x="202.5" y="890" width="60" height="30" as="geometry"/>
                </mxCell>
                <mxCell id="153" value="" style="shape=datastore;whiteSpace=wrap;html=1;fontColor=#000000;fillColor=#E07A5F;strokeColor=#333333;" parent="1" vertex="1">
                    <mxGeometry x="627.9300000000001" y="900" width="112.07" height="112.07" as="geometry"/>
                </mxCell>
                <mxCell id="155" value="" style="verticalLabelPosition=bottom;html=1;verticalAlign=top;strokeWidth=8;shape=mxgraph.lean_mapping.physical_pull;pointerEvents=1;rounded=1;shadow=0;fillColor=#F2CC8F;rotation=-15;sketch=1;fontColor=#393C56;strokeColor=#E07A5F;" parent="1" vertex="1">
                    <mxGeometry x="330" y="896.04" width="120" height="120" as="geometry"/>
                </mxCell>
                <mxCell id="160" value="" style="verticalLabelPosition=bottom;shadow=0;dashed=0;align=center;html=1;verticalAlign=top;strokeWidth=1;shape=mxgraph.mockup.misc.loading_circle_2;pointerEvents=1;fillColor=#E07A5F;" parent="1" vertex="1">
                    <mxGeometry x="360" y="928.54" width="55" height="55" as="geometry"/>
                </mxCell>
                <mxCell id="162" value="" style="endArrow=classic;html=1;strokeColor=#006666;strokeWidth=4;" parent="1" edge="1">
                    <mxGeometry width="50" height="50" relative="1" as="geometry">
                        <mxPoint x="434" y="920" as="sourcePoint"/>
                        <mxPoint x="625" y="920" as="targetPoint"/>
                        <Array as="points"/>
                    </mxGeometry>
                </mxCell>
                <mxCell id="164" value="" style="endArrow=classic;html=1;strokeColor=#006666;strokeWidth=4;" parent="1" edge="1">
                    <mxGeometry width="50" height="50" relative="1" as="geometry">
                        <mxPoint x="178.5" y="930" as="sourcePoint"/>
                        <mxPoint x="318.5" y="930" as="targetPoint"/>
                        <Array as="points"/>
                    </mxGeometry>
                </mxCell>
                <mxCell id="165" value="&lt;b&gt;&lt;font color=&quot;#1a1a1a&quot;&gt;registerCallback&lt;br&gt;quandoTerminarMeChama&lt;/font&gt;&lt;/b&gt;" style="text;html=1;strokeColor=none;fillColor=none;align=center;verticalAlign=middle;whiteSpace=wrap;rounded=0;" parent="1" vertex="1">
                    <mxGeometry x="490" y="890" width="40" height="20" as="geometry"/>
                </mxCell>
                <mxCell id="172" value="&lt;h1&gt;Preciso Listar Banco de Dados&lt;/h1&gt;&lt;div&gt;Para que eu consiga listar eu envio a chamada e uma função que vai ser executada quando essa chamada terminar.&lt;/div&gt;" style="text;html=1;strokeColor=none;fillColor=none;spacing=5;spacingTop=-20;whiteSpace=wrap;overflow=hidden;rounded=0;sketch=0;fontColor=#393C56;" parent="1" vertex="1">
                    <mxGeometry x="740" y="870" width="190" height="180" as="geometry"/>
                </mxCell>
                <mxCell id="173" value="&lt;b&gt;&lt;font color=&quot;#006666&quot;&gt;Chamada: &quot;Quero todos os clientes&quot;&amp;nbsp;&lt;/font&gt;&lt;/b&gt;" style="text;html=1;strokeColor=none;fillColor=none;align=center;verticalAlign=middle;whiteSpace=wrap;rounded=0;" parent="1" vertex="1">
                    <mxGeometry x="286.37" y="860" width="223.75" height="24.35" as="geometry"/>
                </mxCell>
                <mxCell id="174" value="" style="endArrow=classic;html=1;strokeColor=#006666;strokeWidth=4;" parent="1" target="155" edge="1">
                    <mxGeometry width="50" height="50" relative="1" as="geometry">
                        <mxPoint x="690" y="1020" as="sourcePoint"/>
                        <mxPoint x="437.93" y="1040" as="targetPoint"/>
                        <Array as="points">
                            <mxPoint x="690" y="1050"/>
                            <mxPoint x="670" y="1050"/>
                            <mxPoint x="630" y="1050"/>
                            <mxPoint x="550" y="1050"/>
                            <mxPoint x="450" y="1050"/>
                        </Array>
                    </mxGeometry>
                </mxCell>
                <mxCell id="175" value="&lt;font color=&quot;#1a1a1a&quot;&gt;&lt;b&gt;callback:&lt;br&gt;quandoTerminarMeChama(usúarios)&lt;/b&gt;&lt;/font&gt;" style="text;html=1;strokeColor=none;fillColor=none;align=left;verticalAlign=middle;whiteSpace=wrap;rounded=0;" parent="1" vertex="1">
                    <mxGeometry x="470" y="1010" width="40" height="20" as="geometry"/>
                </mxCell>
                <mxCell id="176" value="" style="endArrow=classic;html=1;strokeColor=#006666;strokeWidth=4;" parent="1" edge="1">
                    <mxGeometry width="50" height="50" relative="1" as="geometry">
                        <mxPoint x="320" y="1010" as="sourcePoint"/>
                        <mxPoint x="99" y="965" as="targetPoint"/>
                        <Array as="points">
                            <mxPoint x="99" y="1010"/>
                            <mxPoint x="99" y="990"/>
                        </Array>
                    </mxGeometry>
                </mxCell>
                <mxCell id="177" value="&lt;font color=&quot;#1a1a1a&quot;&gt;&lt;b&gt;Devolve Usuários para quem chamou: Usuarios[ ]&lt;/b&gt;&lt;/font&gt;" style="text;html=1;strokeColor=none;fillColor=none;align=left;verticalAlign=middle;whiteSpace=wrap;rounded=0;" parent="1" vertex="1">
                    <mxGeometry x="118.75" y="950" width="179.69" height="80" as="geometry"/>
                </mxCell>
                <mxCell id="184" value="" style="endArrow=classic;html=1;strokeColor=#006666;strokeWidth=4;" parent="1" source="131" edge="1">
                    <mxGeometry width="50" height="50" relative="1" as="geometry">
                        <mxPoint x="440" y="490" as="sourcePoint"/>
                        <mxPoint x="520" y="510" as="targetPoint"/>
                        <Array as="points">
                            <mxPoint x="520" y="510"/>
                        </Array>
                    </mxGeometry>
                </mxCell>
                <mxCell id="185" value="&lt;font color=&quot;#006666&quot;&gt;&lt;b&gt;1&lt;/b&gt;&lt;/font&gt;" style="text;html=1;strokeColor=none;fillColor=none;align=center;verticalAlign=middle;whiteSpace=wrap;rounded=0;" parent="1" vertex="1">
                    <mxGeometry x="90" y="400" width="40" height="20" as="geometry"/>
                </mxCell>
                <mxCell id="186" value="&lt;font color=&quot;#006666&quot;&gt;&lt;b&gt;2&lt;/b&gt;&lt;/font&gt;" style="text;html=1;strokeColor=none;fillColor=none;align=center;verticalAlign=middle;whiteSpace=wrap;rounded=0;" parent="1" vertex="1">
                    <mxGeometry x="217.5" y="80" width="40" height="20" as="geometry"/>
                </mxCell>
                <mxCell id="188" style="edgeStyle=orthogonalEdgeStyle;rounded=0;orthogonalLoop=1;jettySize=auto;html=1;exitX=0.5;exitY=0;exitDx=0;exitDy=0;entryX=0.112;entryY=1.1;entryDx=0;entryDy=0;entryPerimeter=0;" parent="1" source="187" target="115" edge="1">
                    <mxGeometry relative="1" as="geometry"/>
                </mxCell>
                <mxCell id="187" value="&lt;font color=&quot;#006666&quot;&gt;&lt;b&gt;3&lt;/b&gt;&lt;/font&gt;" style="text;html=1;strokeColor=none;fillColor=none;align=center;verticalAlign=middle;whiteSpace=wrap;rounded=0;" parent="1" vertex="1">
                    <mxGeometry x="580" y="60" width="40" height="20" as="geometry"/>
                </mxCell>
            </root>
        </mxGraphModel>
    </diagram>
</mxfile>